<?xml version="1.0" encoding="iso-8859-1"?>
<!-- Generator: Adobe Illustrator 19.0.0, SVG Export Plug-In . SVG Version: 6.00 Build 0)  -->
<svg version="1.1" id="Capa_1" xmlns="http://www.w3.org/2000/svg" xmlns:xlink="http://www.w3.org/1999/xlink" x="0px" y="0px"
	 viewBox="0 0 512.001 512.001" style="enable-background:new 0 0 512.001 512.001;" xml:space="preserve">
<path style="fill:#E4EAF8;" d="M373.522,52.209H138.478v118.015c0,4.662,2.198,9.045,5.919,11.806l83.934,62.275
	c7.891,5.855,7.891,17.757,0,23.612l-83.934,62.275c-3.721,2.761-5.919,7.144-5.919,11.806v118.015h235.044V341.999
	c0-4.662-2.198-9.045-5.919-11.806l-83.934-62.275c-7.891-5.855-7.891-17.757,0-23.612l83.934-62.275
	c3.721-2.761,5.919-7.144,5.919-11.806V52.209z"/>
<path style="fill:#D8DCE5;" d="M165.001,330.193l83.934-62.275c7.891-5.855,7.891-17.757,0-23.612l-83.934-62.275
	c-3.721-2.761-5.919-7.144-5.919-11.806V52.209h-20.605v118.015c0,4.662,2.198,9.045,5.919,11.806l83.934,62.275
	c7.891,5.855,7.891,17.757,0,23.612l-83.934,62.275c-3.721,2.761-5.919,7.144-5.919,11.806v118.015h20.605V341.999
	C159.083,337.338,161.28,332.954,165.001,330.193z"/>
<path style="fill:#FFC850;" d="M144.397,330.193c-3.721,2.761-5.919,7.145-5.919,11.806v118.016h235.044V341.999
	c0-4.661-2.198-9.045-5.919-11.806l-31.863-23.641H176.26L144.397,330.193z"/>
<path style="fill:#F9B428;" d="M165.001,330.193l31.863-23.641H176.26l-31.863,23.641c-3.795,2.816-5.919,7.302-5.919,11.806
	v118.016h20.605V341.999C159.083,337.338,161.28,332.954,165.001,330.193z"/>
<g>
	<rect x="64.742" y="52.21" style="fill:#868B9B;" width="28.806" height="407.81"/>
	<rect x="418.451" y="52.21" style="fill:#868B9B;" width="28.806" height="407.81"/>
</g>
<g>
	<rect x="64.742" y="52.21" style="fill:#707487;" width="18.544" height="407.81"/>
	<rect x="418.451" y="52.21" style="fill:#707487;" width="18.544" height="407.81"/>
	<path style="fill:#707487;" d="M465.434,512H46.567c-6.6,0-12-5.4-12-12v-30.008c0-6.6,5.4-12,12-12h418.865c6.6,0,12,5.4,12,12
		V500C477.434,506.6,472.033,512,465.434,512z"/>
</g>
<path style="fill:#5E6377;" d="M466.164,490.833H48.025c-6.799,0-12.363-5.563-12.363-12.363v-13.161
	c-0.697,1.544-1.095,3.25-1.095,5.047v29.282c0,6.8,5.563,12.363,12.363,12.363h418.14c6.799,0,12.363-5.563,12.363-12.363v-16.121
	C475.492,487.816,471.167,490.833,466.164,490.833z"/>
<path style="fill:#707487;" d="M465.434,54.008H46.567c-6.6,0-12-5.4-12-12V12c0-6.6,5.4-12,12-12h418.865c6.6,0,12,5.4,12,12
	v30.008C477.434,48.608,472.033,54.008,465.434,54.008z"/>
<path style="fill:#5E6377;" d="M466.164,32.841H48.025c-6.799,0-12.363-5.563-12.363-12.363V7.316
	c-0.697,1.544-1.095,3.25-1.095,5.047v29.282c0,6.8,5.563,12.363,12.363,12.363h418.14c6.799,0,12.363-5.563,12.363-12.363V25.524
	C475.492,29.824,471.167,32.841,466.164,32.841z"/>
<g>
</g>
<g>
</g>
<g>
</g>
<g>
</g>
<g>
</g>
<g>
</g>
<g>
</g>
<g>
</g>
<g>
</g>
<g>
</g>
<g>
</g>
<g>
</g>
<g>
</g>
<g>
</g>
<g>
</g>
</svg>
